<?xml version="1.0" encoding="UTF-8"?>
<!DOCTYPE svg PUBLIC "-//W3C//DTD SVG 1.1//EN" "http://www.w3.org/Graphics/SVG/1.1/DTD/svg11.dtd">
<svg xmlns="http://www.w3.org/2000/svg" version="1.1" width="315px" height="379px" style="shape-rendering:geometricPrecision; text-rendering:geometricPrecision; image-rendering:optimizeQuality; fill-rule:evenodd; clip-rule:evenodd" xmlns:xlink="http://www.w3.org/1999/xlink">
<g><path style="opacity:0.991" fill="#f75353" d="M 130.5,6.5 C 115.74,10.7623 106.573,20.429 103,35.5C 102.5,50.1629 102.333,64.8295 102.5,79.5C 102.5,110.167 102.5,140.833 102.5,171.5C 102.5,195.5 102.5,219.5 102.5,243.5C 137.5,243.5 172.5,243.5 207.5,243.5C 225.465,261.965 243.632,280.299 262,298.5C 278.508,321.566 277.008,343.4 257.5,364C 244.52,373.443 230.186,376.11 214.5,372C 210.221,370.527 206.221,368.527 202.5,366C 169.028,333.528 135.861,300.695 103,267.5C 102.667,291.167 102.333,314.833 102,338.5C 94.4148,364.055 77.2481,375.888 50.5,374C 31.6555,370.157 19.4889,358.991 14,340.5C 12.3498,256.864 12.0165,173.197 13,89.5C 18.7048,45.2963 43.2048,17.963 86.5,7.5C 101.144,6.54934 115.811,6.21601 130.5,6.5 Z"/></g>
<g><path style="opacity:0.995" fill="#900000" d="M 130.5,6.5 C 158.169,6.33336 185.835,6.50002 213.5,7C 230.914,8.46676 246.247,14.8001 259.5,26C 306.355,64.9142 320.689,113.581 302.5,172C 286.127,216.212 254.46,240.046 207.5,243.5C 172.5,243.5 137.5,243.5 102.5,243.5C 102.5,219.5 102.5,195.5 102.5,171.5C 124.484,172.842 146.484,173.342 168.5,173C 186.562,172.713 201.396,165.879 213,152.5C 226.582,128.632 223.082,107.465 202.5,89C 196.478,84.6555 189.811,81.6555 182.5,80C 155.835,79.5 129.169,79.3334 102.5,79.5C 102.333,64.8295 102.5,50.1629 103,35.5C 106.573,20.429 115.74,10.7623 130.5,6.5 Z"/></g>
</svg>
