<svg xmlns="http://www.w3.org/2000/svg" xmlns:xlink="http://www.w3.org/1999/xlink" width="800" zoomAndPan="magnify" viewBox="0 0 600 149.999998" height="200" preserveAspectRatio="xMidYMid meet" version="1.0"><defs><g/></defs><path fill="#f85353" d="M 74.515625 24.449219 C 69.808594 25.808594 66.886719 28.890625 65.75 33.695312 C 65.484375 38.425781 65.539062 43.105469 65.910156 47.726562 C 65.910156 57.503906 65.910156 67.28125 65.910156 77.058594 C 65.589844 84.65625 65.484375 92.308594 65.589844 100.015625 C 76.746094 100.015625 87.902344 100.015625 99.058594 100.015625 C 105.101562 106.222656 111.210938 112.386719 117.386719 118.511719 C 121.421875 124.367188 121.421875 130.214844 117.386719 136.046875 C 111.976562 141.867188 105.65625 143.089844 98.417969 139.714844 C 97.675781 139.183594 96.933594 138.652344 96.1875 138.121094 C 86.148438 128.074219 76.109375 118.03125 66.066406 107.988281 C 65.960938 115.214844 65.855469 122.441406 65.75 129.671875 C 64.285156 136.339844 60.195312 140.328125 53.476562 141.628906 C 45.324219 142.253906 39.957031 138.691406 37.382812 130.945312 C 36.855469 104.277344 36.75 77.601562 37.0625 50.914062 C 38.878906 36.820312 46.691406 28.105469 60.488281 24.769531 C 65.15625 24.464844 69.832031 24.359375 74.515625 24.449219 Z M 74.515625 24.449219 " fill-opacity="0.989" fill-rule="evenodd"/><path fill="#8f0000" d="M 74.515625 24.449219 C 83.332031 24.394531 92.152344 24.449219 100.96875 24.609375 C 106.90625 25.1875 112.113281 27.417969 116.589844 31.304688 C 132.058594 44.910156 135.9375 61.328125 128.222656 80.566406 C 122.308594 92.691406 112.585938 99.175781 99.058594 100.015625 C 87.902344 100.015625 76.746094 100.015625 65.589844 100.015625 C 65.484375 92.308594 65.589844 84.65625 65.910156 77.058594 C 72.808594 77.5 79.714844 77.660156 86.625 77.539062 C 92.382812 77.445312 97.113281 75.265625 100.808594 71 C 105.171875 63.199219 103.949219 56.34375 97.144531 50.4375 C 95.261719 49.277344 93.246094 48.425781 91.089844 47.886719 C 82.695312 47.726562 74.300781 47.671875 65.910156 47.726562 C 65.539062 43.105469 65.484375 38.425781 65.75 33.695312 C 66.886719 28.890625 69.808594 25.808594 74.515625 24.449219 Z M 74.515625 24.449219 " fill-opacity="0.995" fill-rule="evenodd"/><g fill="#808080" fill-opacity="1"><g transform="translate(124.594546, 136.994994)"><g><path d="M 21.027344 4.285156 C 14.164062 4.285156 8.898438 2.683594 5.222656 -0.515625 C 1.410156 -3.839844 -0.496094 -8.269531 -0.496094 -13.808594 C -0.496094 -17.386719 0.34375 -20.558594 2.027344 -23.324219 C 3.765625 -26.183594 6.511719 -28.386719 10.261719 -29.929688 C 13.742188 -31.363281 18.261719 -32.082031 23.824219 -32.082031 C 26.703125 -32.082031 29.53125 -31.636719 32.300781 -30.746094 C 35.113281 -29.84375 37.574219 -28.582031 39.6875 -26.960938 L 37.628906 -24.273438 L 34.246094 -24.273438 C 34.246094 -24.886719 34.230469 -25.496094 34.203125 -26.105469 C 34.179688 -26.679688 34.140625 -27.160156 34.089844 -27.554688 C 33.929688 -28.769531 33.339844 -29.699219 32.316406 -30.339844 C 30.941406 -31.199219 29.070312 -31.628906 26.710938 -31.628906 C 24.730469 -31.628906 22.953125 -31.414062 21.378906 -30.980469 C 19.625 -30.5 17.867188 -29.921875 16.109375 -29.238281 L 15.988281 -29.191406 L 15.863281 -29.15625 C 15.210938 -28.960938 14.617188 -28.792969 14.085938 -28.660156 C 13.335938 -28.472656 12.582031 -28.378906 11.820312 -28.378906 C 9.953125 -28.378906 8.359375 -28.957031 7.027344 -30.113281 C 6.015625 -30.992188 5.082031 -32.253906 4.222656 -33.894531 C 3.363281 -35.613281 2.933594 -37.21875 2.933594 -38.714844 C 2.933594 -40.277344 3.367188 -41.671875 4.238281 -42.890625 C 4.996094 -43.949219 5.996094 -44.8125 7.238281 -45.484375 L 8.84375 -42.503906 L 7.128906 -45.421875 C 9.527344 -46.832031 12.601562 -47.859375 16.347656 -48.5 C 19.875 -49.105469 23.78125 -49.40625 28.066406 -49.40625 C 33.015625 -49.40625 37.480469 -48.601562 41.46875 -46.996094 C 45.632812 -45.316406 48.925781 -42.855469 51.351562 -39.609375 C 53.84375 -36.273438 55.089844 -32.273438 55.089844 -27.613281 C 55.089844 -24.847656 55.046875 -22.578125 54.953125 -20.804688 C 54.863281 -19.148438 54.820312 -17.386719 54.820312 -15.519531 C 54.820312 -14.386719 55.003906 -13.152344 55.375 -11.824219 C 55.773438 -10.382812 56.175781 -9.238281 56.574219 -8.390625 C 57.148438 -7.140625 57.4375 -5.910156 57.4375 -4.691406 C 57.4375 -1.203125 55.019531 1.445312 50.1875 3.257812 L 50.128906 3.28125 L 50.070312 3.300781 C 48.28125 3.898438 46.660156 4.195312 45.210938 4.195312 C 43.113281 4.195312 41.34375 3.691406 39.90625 2.679688 C 38.382812 1.613281 37.347656 0.0859375 36.804688 -1.898438 L 40.066406 -2.796875 L 36.925781 -1.539062 C 36.675781 -2.164062 36.457031 -2.730469 36.265625 -3.234375 C 36.054688 -3.800781 35.875 -4.335938 35.730469 -4.84375 L 38.984375 -5.773438 L 41.375 -3.382812 C 39.222656 -1.230469 36.550781 0.578125 33.351562 2.039062 C 30.078125 3.539062 25.96875 4.285156 21.027344 4.285156 Z M 21.027344 -2.480469 C 24.984375 -2.480469 28.15625 -3.027344 30.539062 -4.113281 C 32.996094 -5.238281 35.011719 -6.589844 36.589844 -8.167969 L 40.65625 -12.234375 L 42.238281 -6.703125 C 42.332031 -6.371094 42.453125 -6.007812 42.605469 -5.609375 C 42.777344 -5.152344 42.976562 -4.632812 43.207031 -4.054688 L 43.277344 -3.878906 L 43.328125 -3.695312 C 43.445312 -3.273438 43.601562 -2.996094 43.792969 -2.859375 C 44.066406 -2.667969 44.539062 -2.570312 45.210938 -2.570312 C 45.925781 -2.570312 46.832031 -2.753906 47.929688 -3.121094 L 49 0.0898438 L 47.8125 -3.078125 C 49.070312 -3.550781 49.953125 -4.027344 50.464844 -4.511719 C 50.582031 -4.621094 50.65625 -4.707031 50.683594 -4.773438 C 50.675781 -4.75 50.667969 -4.722656 50.667969 -4.691406 C 50.667969 -4.917969 50.597656 -5.191406 50.449219 -5.507812 C 49.886719 -6.703125 49.355469 -8.203125 48.851562 -10.011719 C 48.320312 -11.933594 48.050781 -13.769531 48.050781 -15.519531 C 48.050781 -17.503906 48.097656 -19.386719 48.191406 -21.160156 C 48.28125 -22.8125 48.324219 -24.964844 48.324219 -27.613281 C 48.324219 -30.773438 47.523438 -33.421875 45.929688 -35.558594 C 44.261719 -37.789062 41.929688 -39.511719 38.9375 -40.71875 C 35.761719 -42 32.140625 -42.636719 28.066406 -42.636719 C 24.164062 -42.636719 20.640625 -42.367188 17.492188 -41.828125 C 14.558594 -41.328125 12.25 -40.578125 10.558594 -39.585938 L 10.449219 -39.523438 C 10.128906 -39.351562 9.894531 -39.160156 9.746094 -38.957031 C 9.714844 -38.914062 9.699219 -38.832031 9.699219 -38.714844 C 9.699219 -38.28125 9.871094 -37.722656 10.21875 -37.035156 C 10.679688 -36.148438 11.097656 -35.542969 11.46875 -35.21875 C 11.523438 -35.171875 11.640625 -35.148438 11.820312 -35.148438 C 12.023438 -35.148438 12.234375 -35.175781 12.445312 -35.226562 C 12.875 -35.335938 13.367188 -35.472656 13.917969 -35.636719 L 14.890625 -32.394531 L 13.667969 -35.550781 C 15.640625 -36.316406 17.613281 -36.96875 19.589844 -37.511719 C 21.746094 -38.101562 24.121094 -38.398438 26.710938 -38.398438 C 30.367188 -38.398438 33.429688 -37.625 35.90625 -36.078125 C 38.730469 -34.3125 40.367188 -31.75 40.808594 -28.394531 C 40.878906 -27.824219 40.929688 -27.164062 40.964844 -26.414062 C 40.996094 -25.699219 41.015625 -24.988281 41.015625 -24.273438 L 41.015625 -17.414062 L 35.570312 -21.589844 C 34.078125 -22.734375 32.296875 -23.636719 30.234375 -24.300781 C 28.132812 -24.976562 25.996094 -25.3125 23.824219 -25.3125 C 19.15625 -25.3125 15.496094 -24.765625 12.839844 -23.671875 C 10.457031 -22.691406 8.777344 -21.402344 7.808594 -19.808594 C 6.785156 -18.125 6.273438 -16.121094 6.273438 -13.808594 C 6.273438 -10.320312 7.402344 -7.59375 9.667969 -5.621094 C 12.070312 -3.527344 15.855469 -2.480469 21.027344 -2.480469 Z M 20.257812 -15.070312 C 20.257812 -14.820312 20.289062 -14.636719 20.347656 -14.523438 C 20.390625 -14.449219 20.476562 -14.367188 20.613281 -14.28125 C 21.359375 -13.816406 22.699219 -13.582031 24.636719 -13.582031 C 26.65625 -13.582031 28.378906 -13.871094 29.804688 -14.457031 C 31.257812 -15.050781 32.707031 -16.023438 34.152344 -17.367188 L 36.457031 -14.890625 L 33.6875 -12.941406 C 32.917969 -14.039062 31.761719 -14.910156 30.222656 -15.5625 C 28.507812 -16.285156 26.707031 -16.648438 24.816406 -16.648438 C 23.65625 -16.648438 22.695312 -16.5625 21.929688 -16.386719 C 21.386719 -16.261719 20.996094 -16.109375 20.765625 -15.933594 C 20.429688 -15.679688 20.257812 -15.390625 20.257812 -15.070312 Z M 13.492188 -15.070312 C 13.492188 -17.636719 14.554688 -19.722656 16.683594 -21.332031 C 18.519531 -22.722656 21.230469 -23.417969 24.816406 -23.417969 C 27.621094 -23.417969 30.300781 -22.878906 32.855469 -21.796875 C 35.585938 -20.644531 37.710938 -18.988281 39.222656 -16.835938 L 40.921875 -14.421875 L 38.761719 -12.414062 C 36.71875 -10.507812 34.585938 -9.101562 32.371094 -8.195312 C 30.125 -7.273438 27.546875 -6.8125 24.636719 -6.8125 C 21.398438 -6.8125 18.859375 -7.390625 17.015625 -8.550781 C 15.859375 -9.277344 14.976562 -10.210938 14.371094 -11.351562 C 13.785156 -12.457031 13.492188 -13.695312 13.492188 -15.070312 Z M 13.492188 -15.070312 "/></g></g></g><g fill="#808080" fill-opacity="1"><g transform="translate(183.698275, 136.994994)"><g><path d="M 25.539062 4.285156 C 19.460938 4.285156 14.613281 2.714844 11 -0.421875 C 7.246094 -3.683594 5.367188 -8.835938 5.367188 -15.882812 C 5.367188 -18.554688 5.398438 -21.34375 5.460938 -24.253906 L 5.640625 -32.917969 L 9.023438 -32.847656 L 9.023438 -29.464844 L 6.949219 -29.464844 C 3.621094 -29.464844 1.183594 -30.371094 -0.363281 -32.183594 C -1.777344 -33.839844 -2.480469 -36.167969 -2.480469 -39.164062 C -2.480469 -42.300781 -1.730469 -44.652344 -0.222656 -46.207031 C 1.316406 -47.800781 3.765625 -48.59375 7.128906 -48.59375 L 9.386719 -48.59375 L 9.386719 -45.210938 L 6.003906 -45.320312 C 6.0625 -47.207031 6.140625 -49.007812 6.230469 -50.714844 L 6.457031 -55.214844 C 6.660156 -58.152344 7.726562 -60.222656 9.667969 -61.433594 C 11.179688 -62.378906 13.097656 -62.851562 15.429688 -62.851562 C 19.269531 -62.851562 22.109375 -62.273438 23.953125 -61.117188 C 25.285156 -60.28125 26.210938 -59.082031 26.730469 -57.527344 C 27.144531 -56.277344 27.269531 -54.824219 27.101562 -53.167969 L 23.734375 -53.511719 L 27.109375 -53.308594 L 26.886719 -49.5625 C 26.796875 -48.171875 26.722656 -46.652344 26.664062 -45 L 23.28125 -45.121094 L 23.398438 -48.503906 C 25.105469 -48.441406 26.75 -48.414062 28.335938 -48.414062 L 32.488281 -48.414062 C 35.621094 -48.414062 37.933594 -47.476562 39.421875 -45.601562 C 40.722656 -43.960938 41.375 -41.726562 41.375 -38.894531 C 41.375 -36.109375 40.78125 -33.90625 39.589844 -32.285156 C 38.160156 -30.34375 35.855469 -29.371094 32.667969 -29.371094 L 22.921875 -29.371094 L 22.921875 -32.757812 L 26.304688 -32.679688 C 26.246094 -30.058594 26.214844 -27.421875 26.214844 -24.769531 L 26.214844 -17.234375 C 26.214844 -16.304688 26.378906 -15.675781 26.710938 -15.34375 C 27.042969 -15.011719 27.464844 -14.84375 27.972656 -14.84375 C 28.417969 -14.84375 28.867188 -14.914062 29.324219 -15.054688 C 29.824219 -15.210938 30.433594 -15.507812 31.144531 -15.953125 L 31.28125 -16.039062 L 31.425781 -16.113281 C 32.503906 -16.652344 33.609375 -16.921875 34.742188 -16.921875 C 36.296875 -16.921875 37.789062 -16.367188 39.210938 -15.261719 C 40.378906 -14.351562 41.46875 -13.007812 42.472656 -11.230469 L 42.511719 -11.15625 L 42.550781 -11.078125 C 42.933594 -10.316406 43.226562 -9.605469 43.433594 -8.949219 C 43.683594 -8.140625 43.8125 -7.324219 43.8125 -6.496094 C 43.8125 -4.867188 43.304688 -3.382812 42.292969 -2.042969 C 41.441406 -0.914062 40.242188 0.0664062 38.699219 0.902344 L 37.089844 -2.074219 L 38.941406 0.753906 C 36.882812 2.105469 34.84375 3.035156 32.824219 3.550781 C 30.898438 4.042969 28.46875 4.285156 25.539062 4.285156 Z M 25.539062 -2.480469 C 27.902344 -2.480469 29.773438 -2.65625 31.15625 -3.007812 C 32.445312 -3.335938 33.804688 -3.96875 35.234375 -4.90625 L 35.355469 -4.984375 L 35.480469 -5.050781 C 36.523438 -5.617188 37.042969 -6.097656 37.042969 -6.496094 C 37.042969 -6.632812 37.019531 -6.777344 36.972656 -6.933594 C 36.875 -7.238281 36.71875 -7.613281 36.5 -8.050781 L 39.523438 -9.566406 L 36.578125 -7.898438 C 36.019531 -8.890625 35.511719 -9.5625 35.054688 -9.917969 C 34.90625 -10.035156 34.777344 -10.113281 34.679688 -10.152344 L 34.667969 -10.160156 C 34.691406 -10.152344 34.714844 -10.152344 34.742188 -10.152344 C 34.671875 -10.152344 34.578125 -10.121094 34.449219 -10.058594 L 32.9375 -13.085938 L 34.730469 -10.214844 C 33.519531 -9.457031 32.378906 -8.914062 31.316406 -8.585938 C 30.210938 -8.246094 29.097656 -8.078125 27.972656 -8.078125 C 25.597656 -8.078125 23.582031 -8.902344 21.925781 -10.554688 C 20.273438 -12.210938 19.445312 -14.4375 19.445312 -17.234375 L 19.445312 -24.769531 C 19.445312 -27.472656 19.476562 -30.160156 19.539062 -32.835938 L 19.613281 -36.140625 L 32.667969 -36.140625 C 33.289062 -36.140625 33.765625 -36.199219 34.089844 -36.320312 C 34.152344 -36.34375 34.191406 -36.359375 34.210938 -36.375 C 34.1875 -36.355469 34.164062 -36.332031 34.136719 -36.296875 C 34.449219 -36.722656 34.605469 -37.589844 34.605469 -38.894531 C 34.605469 -40.152344 34.445312 -40.984375 34.121094 -41.390625 C 34.132812 -41.378906 34.136719 -41.375 34.136719 -41.375 C 34.097656 -41.402344 34.035156 -41.429688 33.953125 -41.460938 C 33.605469 -41.582031 33.117188 -41.644531 32.488281 -41.644531 L 28.335938 -41.644531 C 26.671875 -41.644531 24.949219 -41.675781 23.164062 -41.738281 L 19.777344 -41.855469 L 19.898438 -45.242188 C 19.960938 -46.957031 20.039062 -48.535156 20.128906 -49.972656 L 20.359375 -53.785156 L 20.367188 -53.859375 C 20.4375 -54.546875 20.417969 -55.058594 20.308594 -55.386719 C 20.296875 -55.417969 20.289062 -55.441406 20.28125 -55.457031 C 20.28125 -55.457031 20.28125 -55.453125 20.289062 -55.449219 C 20.308594 -55.421875 20.332031 -55.398438 20.355469 -55.382812 C 20.078125 -55.558594 19.589844 -55.707031 18.898438 -55.832031 C 17.980469 -56 16.824219 -56.085938 15.429688 -56.085938 C 14.394531 -56.085938 13.667969 -55.953125 13.253906 -55.695312 C 13.3125 -55.730469 13.359375 -55.773438 13.398438 -55.820312 L 13.40625 -55.816406 C 13.308594 -55.605469 13.246094 -55.292969 13.214844 -54.878906 L 12.988281 -50.351562 C 12.902344 -48.691406 12.828125 -46.941406 12.765625 -45.101562 L 12.660156 -41.824219 L 7.128906 -41.824219 C 6.230469 -41.824219 5.519531 -41.753906 4.992188 -41.609375 C 4.828125 -41.5625 4.703125 -41.519531 4.613281 -41.46875 C 4.601562 -41.460938 4.59375 -41.457031 4.589844 -41.457031 C 4.605469 -41.46875 4.625 -41.484375 4.644531 -41.503906 C 4.605469 -41.464844 4.554688 -41.328125 4.488281 -41.097656 C 4.355469 -40.613281 4.285156 -39.96875 4.285156 -39.164062 C 4.285156 -38.382812 4.355469 -37.742188 4.492188 -37.238281 C 4.578125 -36.925781 4.675781 -36.707031 4.785156 -36.578125 L 4.792969 -36.578125 C 4.863281 -36.535156 4.960938 -36.492188 5.09375 -36.449219 C 5.542969 -36.304688 6.160156 -36.230469 6.949219 -36.230469 L 12.480469 -36.230469 L 12.226562 -24.113281 C 12.167969 -21.25 12.136719 -18.503906 12.136719 -15.882812 C 12.136719 -10.894531 13.238281 -7.445312 15.441406 -5.53125 C 17.78125 -3.5 21.148438 -2.480469 25.539062 -2.480469 Z M 25.539062 -2.480469 "/></g></g></g><g fill="#808080" fill-opacity="1"><g transform="translate(227.191463, 136.994994)"><g><path d="M 12.722656 4.285156 C 8.878906 4.285156 6.152344 3.71875 4.546875 2.585938 C 2.566406 1.1875 1.578125 -1.207031 1.578125 -4.601562 C 1.578125 -6.164062 1.640625 -8.148438 1.765625 -10.550781 L 2.125 -18.207031 L 2.484375 -26.585938 C 2.601562 -29.363281 2.660156 -31.933594 2.660156 -34.292969 L 2.660156 -41.285156 C 2.660156 -43.949219 2.648438 -46.660156 2.617188 -49.414062 L 2.527344 -57.035156 C 2.496094 -59.3125 2.453125 -61.0625 2.394531 -62.285156 L 2.394531 -62.324219 L 2.390625 -62.363281 C 2.300781 -66.082031 3.394531 -68.691406 5.671875 -70.191406 C 7.472656 -71.375 10.03125 -71.964844 13.355469 -71.964844 C 16.695312 -71.964844 19.117188 -71.214844 20.621094 -69.710938 C 22.09375 -68.242188 22.875 -66.1875 22.964844 -63.554688 L 19.582031 -63.4375 L 22.957031 -63.707031 C 23.082031 -62.140625 23.175781 -60.09375 23.234375 -57.566406 C 23.296875 -55.082031 23.34375 -52.34375 23.371094 -49.351562 C 23.402344 -46.359375 23.417969 -43.328125 23.417969 -40.246094 L 20.035156 -40.246094 L 17.523438 -42.515625 C 19.539062 -44.746094 21.929688 -46.457031 24.699219 -47.644531 C 27.441406 -48.820312 30.519531 -49.40625 33.929688 -49.40625 C 39.230469 -49.40625 43.570312 -48.425781 46.949219 -46.46875 C 50.394531 -44.476562 52.988281 -41.734375 54.734375 -38.242188 C 56.375 -34.960938 57.363281 -31.175781 57.699219 -26.882812 C 57.886719 -24.953125 57.980469 -22.941406 57.980469 -20.84375 C 57.980469 -17.714844 57.808594 -14.558594 57.464844 -11.367188 C 57.121094 -8.183594 56.636719 -5.125 56.011719 -2.183594 C 55.523438 0.257812 54.390625 2.023438 52.617188 3.109375 C 51.144531 4.015625 49.484375 4.46875 47.648438 4.46875 C 46.582031 4.46875 45.488281 4.355469 44.367188 4.128906 C 41.039062 3.511719 38.695312 2.425781 37.339844 0.875 C 35.808594 -0.871094 35.242188 -3.074219 35.636719 -5.730469 C 36.105469 -8.726562 36.457031 -11.800781 36.691406 -14.960938 C 36.925781 -18.125 37.042969 -21.050781 37.042969 -23.734375 C 37.042969 -26.058594 36.550781 -27.773438 35.5625 -28.875 C 34.667969 -29.867188 33.34375 -30.367188 31.585938 -30.367188 C 30.234375 -30.367188 28.976562 -30.007812 27.804688 -29.285156 C 26.683594 -28.597656 25.722656 -27.367188 24.925781 -25.59375 C 24.003906 -23.550781 23.410156 -20.625 23.136719 -16.8125 C 22.960938 -14.78125 22.8125 -12.378906 22.691406 -9.601562 C 22.566406 -6.632812 22.308594 -4.023438 21.925781 -1.773438 C 21.585938 0.371094 20.546875 1.972656 18.8125 3.027344 C 17.429688 3.867188 15.402344 4.285156 12.722656 4.285156 Z M 12.722656 -2.480469 C 13.546875 -2.480469 14.222656 -2.527344 14.75 -2.621094 C 15.054688 -2.675781 15.238281 -2.722656 15.300781 -2.757812 C 15.257812 -2.730469 15.222656 -2.695312 15.191406 -2.648438 C 15.210938 -2.675781 15.230469 -2.765625 15.253906 -2.917969 C 15.589844 -4.882812 15.816406 -7.207031 15.929688 -9.890625 C 16.054688 -12.769531 16.203125 -15.238281 16.386719 -17.296875 C 16.714844 -21.90625 17.503906 -25.597656 18.753906 -28.371094 C 20.121094 -31.410156 21.957031 -33.636719 24.261719 -35.054688 C 26.519531 -36.441406 28.960938 -37.132812 31.585938 -37.132812 C 35.359375 -37.132812 38.363281 -35.886719 40.601562 -33.390625 C 42.742188 -31.003906 43.8125 -27.785156 43.8125 -23.734375 C 43.8125 -20.882812 43.6875 -17.789062 43.441406 -14.460938 C 43.195312 -11.117188 42.824219 -7.878906 42.332031 -4.738281 C 42.242188 -4.144531 42.277344 -3.761719 42.433594 -3.582031 C 42.511719 -3.492188 42.738281 -3.367188 43.117188 -3.210938 C 43.75 -2.941406 44.609375 -2.707031 45.695312 -2.507812 C 46.375 -2.371094 47.027344 -2.300781 47.648438 -2.300781 C 48.214844 -2.300781 48.691406 -2.421875 49.082031 -2.660156 C 49.070312 -2.652344 49.058594 -2.644531 49.050781 -2.636719 C 49.066406 -2.652344 49.082031 -2.675781 49.101562 -2.710938 C 49.214844 -2.898438 49.308594 -3.191406 49.390625 -3.59375 C 49.96875 -6.304688 50.414062 -9.140625 50.734375 -12.09375 C 51.050781 -15.042969 51.210938 -17.957031 51.210938 -20.84375 C 51.210938 -22.722656 51.125 -24.558594 50.949219 -26.355469 C 50.683594 -29.769531 49.925781 -32.71875 48.679688 -35.214844 C 47.539062 -37.496094 45.832031 -39.296875 43.558594 -40.613281 C 41.226562 -41.960938 38.015625 -42.636719 33.929688 -42.636719 C 31.445312 -42.636719 29.257812 -42.234375 27.367188 -41.421875 C 25.503906 -40.625 23.898438 -39.476562 22.542969 -37.980469 L 16.648438 -31.453125 L 16.648438 -40.246094 C 16.648438 -43.304688 16.632812 -46.316406 16.605469 -49.28125 C 16.574219 -52.242188 16.53125 -54.949219 16.46875 -57.398438 C 16.410156 -59.804688 16.324219 -61.726562 16.207031 -63.167969 L 16.203125 -63.246094 L 16.199219 -63.320312 C 16.179688 -63.851562 16.117188 -64.277344 16.003906 -64.601562 C 15.949219 -64.761719 15.890625 -64.871094 15.835938 -64.925781 C 15.863281 -64.898438 15.890625 -64.875 15.917969 -64.855469 L 15.90625 -64.859375 C 15.820312 -64.902344 15.695312 -64.949219 15.527344 -64.992188 C 14.996094 -65.128906 14.269531 -65.199219 13.355469 -65.199219 C 11.382812 -65.199219 10.066406 -64.976562 9.394531 -64.539062 C 9.421875 -64.554688 9.4375 -64.570312 9.449219 -64.582031 C 9.421875 -64.546875 9.390625 -64.480469 9.355469 -64.386719 C 9.203125 -63.960938 9.140625 -63.34375 9.160156 -62.527344 L 5.773438 -62.445312 L 9.15625 -62.605469 C 9.21875 -61.304688 9.265625 -59.476562 9.292969 -57.117188 L 9.386719 -49.488281 C 9.414062 -46.707031 9.429688 -43.972656 9.429688 -41.285156 L 9.429688 -34.292969 C 9.429688 -31.835938 9.367188 -29.171875 9.246094 -26.292969 L 8.886719 -17.890625 L 8.523438 -10.203125 C 8.40625 -7.914062 8.347656 -6.046875 8.347656 -4.601562 C 8.347656 -3.871094 8.414062 -3.3125 8.542969 -2.9375 C 8.570312 -2.863281 8.589844 -2.820312 8.601562 -2.800781 C 8.566406 -2.851562 8.515625 -2.898438 8.449219 -2.945312 C 8.433594 -2.953125 8.421875 -2.960938 8.414062 -2.96875 C 8.414062 -2.96875 8.417969 -2.96875 8.421875 -2.964844 C 8.460938 -2.945312 8.511719 -2.925781 8.578125 -2.902344 C 8.789062 -2.828125 9.066406 -2.761719 9.402344 -2.703125 C 10.246094 -2.554688 11.355469 -2.480469 12.722656 -2.480469 Z M 12.722656 -2.480469 "/></g></g></g><g fill="#808080" fill-opacity="1"><g transform="translate(288.911988, 136.994994)"><g><path d="M 12.363281 4.285156 C 10.59375 4.285156 9.09375 4.15625 7.859375 3.898438 C 6.269531 3.566406 5.015625 2.996094 4.089844 2.1875 C 2.355469 0.667969 1.488281 -1.5625 1.488281 -4.511719 C 1.488281 -7.429688 1.597656 -10.230469 1.816406 -12.90625 C 2.019531 -15.421875 2.152344 -18.359375 2.210938 -21.71875 C 2.273438 -23.542969 2.316406 -25.226562 2.347656 -26.777344 C 2.375 -28.320312 2.390625 -29.832031 2.390625 -31.3125 C 2.390625 -32.648438 2.363281 -33.984375 2.304688 -35.316406 C 2.242188 -36.75 2.210938 -38.242188 2.210938 -39.796875 C 2.210938 -42.484375 2.882812 -44.625 4.226562 -46.21875 C 5.597656 -47.847656 7.828125 -48.867188 10.917969 -49.285156 L 11.371094 -45.933594 L 10.8125 -49.269531 C 11.359375 -49.359375 11.90625 -49.40625 12.453125 -49.40625 L 13.445312 -49.40625 C 15.929688 -49.40625 17.984375 -48.8125 19.601562 -47.621094 C 21.429688 -46.277344 22.484375 -44.234375 22.769531 -41.496094 L 22.773438 -41.460938 L 22.773438 -41.421875 C 22.960938 -39.105469 23.054688 -36.9375 23.054688 -34.921875 C 23.054688 -33.75 23.042969 -32.550781 23.011719 -31.320312 C 22.980469 -30.144531 22.964844 -28.910156 22.964844 -27.613281 C 22.964844 -26.460938 22.902344 -24.859375 22.78125 -22.804688 C 22.660156 -20.84375 22.554688 -18.746094 22.46875 -16.515625 L 22.195312 -10.054688 C 22.109375 -8.054688 22.0625 -6.476562 22.0625 -5.324219 C 22.0625 -1.875 21.15625 0.621094 19.339844 2.167969 C 17.6875 3.582031 15.359375 4.285156 12.363281 4.285156 Z M 12.363281 -2.480469 C 13.144531 -2.480469 13.785156 -2.550781 14.289062 -2.6875 C 14.601562 -2.773438 14.820312 -2.871094 14.949219 -2.980469 C 14.933594 -2.96875 14.921875 -2.957031 14.914062 -2.949219 C 14.917969 -2.949219 14.921875 -2.957031 14.929688 -2.96875 C 14.976562 -3.042969 15.019531 -3.152344 15.066406 -3.296875 C 15.21875 -3.789062 15.296875 -4.464844 15.296875 -5.324219 C 15.296875 -6.578125 15.339844 -8.25 15.433594 -10.339844 L 15.703125 -16.785156 C 15.796875 -19.0625 15.902344 -21.207031 16.023438 -23.214844 C 16.140625 -25.132812 16.199219 -26.597656 16.199219 -27.613281 C 16.199219 -28.964844 16.214844 -30.257812 16.242188 -31.488281 C 16.273438 -32.664062 16.289062 -33.808594 16.289062 -34.921875 C 16.289062 -36.757812 16.203125 -38.742188 16.027344 -40.875 L 19.402344 -41.148438 L 16.035156 -40.800781 C 15.957031 -41.550781 15.808594 -42.007812 15.59375 -42.167969 C 15.164062 -42.480469 14.449219 -42.636719 13.445312 -42.636719 L 12.453125 -42.636719 C 12.277344 -42.636719 12.101562 -42.625 11.925781 -42.59375 L 11.824219 -42.578125 C 11.003906 -42.46875 10.347656 -42.3125 9.859375 -42.109375 C 9.605469 -42.003906 9.453125 -41.917969 9.398438 -41.855469 C 9.121094 -41.523438 8.980469 -40.835938 8.980469 -39.796875 C 8.980469 -38.339844 9.007812 -36.945312 9.066406 -35.609375 C 9.128906 -34.179688 9.160156 -32.746094 9.160156 -31.3125 C 9.160156 -29.789062 9.144531 -28.230469 9.113281 -26.644531 C 9.082031 -25.066406 9.039062 -23.382812 8.980469 -21.597656 C 8.917969 -18.097656 8.777344 -15.015625 8.5625 -12.359375 C 8.359375 -9.863281 8.257812 -7.246094 8.257812 -4.511719 C 8.257812 -3.929688 8.316406 -3.472656 8.429688 -3.140625 C 8.476562 -3.015625 8.511719 -2.9375 8.546875 -2.90625 L 8.558594 -2.921875 C 8.726562 -2.851562 8.953125 -2.785156 9.242188 -2.726562 C 10.023438 -2.5625 11.0625 -2.480469 12.363281 -2.480469 Z M 2.03125 -59.648438 C 2.03125 -60.3125 2.046875 -60.945312 2.082031 -61.550781 C 2.105469 -62.03125 2.121094 -62.539062 2.121094 -63.078125 C 2.121094 -66.167969 3.097656 -68.46875 5.050781 -69.992188 C 6.746094 -71.308594 9.210938 -71.964844 12.453125 -71.964844 C 16.21875 -71.964844 18.957031 -71.253906 20.664062 -69.828125 C 22.558594 -68.25 23.507812 -66.179688 23.507812 -63.621094 L 23.507812 -59.964844 C 23.507812 -58.75 23.4375 -57.644531 23.292969 -56.644531 L 19.941406 -57.121094 L 23.3125 -56.816406 C 23.027344 -53.683594 21.835938 -51.492188 19.734375 -50.242188 C 18.085938 -49.265625 15.71875 -48.773438 12.632812 -48.773438 C 9.820312 -48.773438 7.644531 -49.203125 6.109375 -50.0625 C 4.226562 -51.113281 3.035156 -52.671875 2.53125 -54.742188 C 2.199219 -56.117188 2.03125 -57.753906 2.03125 -59.648438 Z M 8.796875 -59.648438 C 8.796875 -58.292969 8.902344 -57.191406 9.109375 -56.34375 C 9.148438 -56.1875 9.246094 -56.0625 9.410156 -55.96875 C 9.921875 -55.683594 10.996094 -55.542969 12.632812 -55.542969 C 14.480469 -55.542969 15.691406 -55.714844 16.273438 -56.058594 C 16.25 -56.046875 16.230469 -56.03125 16.21875 -56.015625 C 16.234375 -56.035156 16.253906 -56.070312 16.28125 -56.125 C 16.421875 -56.414062 16.519531 -56.847656 16.574219 -57.429688 L 16.582031 -57.515625 L 16.59375 -57.601562 C 16.691406 -58.285156 16.738281 -59.070312 16.738281 -59.964844 L 16.738281 -63.621094 C 16.738281 -64.066406 16.605469 -64.402344 16.332031 -64.628906 C 16.210938 -64.730469 15.910156 -64.835938 15.4375 -64.941406 C 14.671875 -65.113281 13.675781 -65.199219 12.453125 -65.199219 C 11.484375 -65.199219 10.683594 -65.125 10.054688 -64.972656 C 9.644531 -64.875 9.359375 -64.769531 9.207031 -64.648438 C 9.160156 -64.613281 9.117188 -64.535156 9.070312 -64.417969 C 8.949219 -64.097656 8.890625 -63.652344 8.890625 -63.078125 C 8.890625 -62.414062 8.871094 -61.78125 8.839844 -61.175781 C 8.8125 -60.695312 8.796875 -60.1875 8.796875 -59.648438 Z M 8.796875 -59.648438 "/></g></g></g><g fill="#808080" fill-opacity="1"><g transform="translate(316.072764, 136.994994)"><g><path d="M 29.417969 4.285156 C 23.15625 4.285156 17.921875 3.703125 13.714844 2.539062 C 9.464844 1.363281 5.632812 -0.34375 2.207031 -2.582031 C -0.917969 -4.636719 -2.480469 -7.144531 -2.480469 -10.105469 C -2.480469 -11.871094 -1.929688 -13.582031 -0.832031 -15.234375 C 1.898438 -19.246094 4.792969 -21.25 7.851562 -21.25 C 9.046875 -21.25 10.242188 -20.953125 11.441406 -20.351562 C 14.546875 -18.773438 17.710938 -17.5625 20.933594 -16.71875 C 24.113281 -15.890625 28.023438 -15.476562 32.667969 -15.476562 C 34.582031 -15.476562 36.046875 -15.738281 37.0625 -16.269531 C 37.222656 -16.351562 37.324219 -16.433594 37.371094 -16.515625 C 37.453125 -16.660156 37.496094 -16.898438 37.496094 -17.234375 C 37.496094 -17.179688 37.5 -17.132812 37.515625 -17.101562 C 37.492188 -17.15625 37.4375 -17.234375 37.351562 -17.335938 C 36.984375 -17.769531 36.34375 -18.242188 35.4375 -18.75 C 33.109375 -20.050781 29.976562 -21.332031 26.042969 -22.585938 C 19.597656 -24.710938 14.605469 -26.8125 11.058594 -28.890625 C 7.15625 -31.175781 4.425781 -33.824219 2.859375 -36.839844 C 1.34375 -39.765625 0.585938 -43.15625 0.585938 -47.015625 C 0.585938 -50.273438 1.214844 -53.191406 2.476562 -55.765625 C 3.757812 -58.382812 5.660156 -60.59375 8.183594 -62.402344 C 12.894531 -65.769531 20.089844 -67.453125 29.777344 -67.453125 C 33.605469 -67.453125 36.890625 -67.261719 39.632812 -66.878906 C 42.417969 -66.492188 44.871094 -65.949219 46.988281 -65.253906 C 49.054688 -64.578125 50.964844 -63.816406 52.722656 -62.96875 C 54.074219 -62.292969 55.152344 -61.527344 55.96875 -60.667969 C 57.128906 -59.445312 57.707031 -57.871094 57.707031 -55.949219 C 57.707031 -54.476562 57.320312 -52.808594 56.546875 -50.949219 L 53.421875 -52.25 L 56.582031 -51.035156 C 55.796875 -49 54.878906 -47.476562 53.820312 -46.464844 C 52.476562 -45.175781 50.839844 -44.535156 48.910156 -44.535156 C 47.667969 -44.535156 46.101562 -44.824219 44.214844 -45.40625 L 44.164062 -45.421875 L 44.117188 -45.4375 C 41.863281 -46.207031 39.359375 -46.773438 36.601562 -47.132812 C 33.769531 -47.503906 31.015625 -47.691406 28.335938 -47.691406 C 25.429688 -47.691406 23.445312 -47.429688 22.378906 -46.910156 C 22.164062 -46.800781 22.03125 -46.714844 21.984375 -46.648438 L 21.992188 -46.652344 C 21.980469 -46.613281 21.972656 -46.554688 21.972656 -46.472656 C 21.972656 -46.5625 21.960938 -46.632812 21.941406 -46.683594 C 21.960938 -46.636719 22.011719 -46.566406 22.09375 -46.464844 C 22.445312 -46.039062 23.058594 -45.5625 23.925781 -45.039062 C 26.074219 -43.742188 29.40625 -42.414062 33.914062 -41.050781 C 40.128906 -39.230469 45.023438 -37.253906 48.609375 -35.125 C 52.460938 -32.835938 55.210938 -30.242188 56.859375 -27.347656 C 58.507812 -24.453125 59.332031 -21.261719 59.332031 -17.777344 C 59.332031 -13.707031 58.410156 -10 56.5625 -6.664062 C 54.628906 -3.164062 51.398438 -0.433594 46.871094 1.527344 C 42.621094 3.367188 36.804688 4.285156 29.417969 4.285156 Z M 29.417969 -2.480469 C 35.867188 -2.480469 40.789062 -3.214844 44.179688 -4.683594 C 47.296875 -6.035156 49.449219 -7.785156 50.640625 -9.941406 C 51.921875 -12.257812 52.566406 -14.871094 52.566406 -17.777344 C 52.566406 -20.066406 52.035156 -22.140625 50.976562 -24 C 49.917969 -25.855469 47.976562 -27.625 45.148438 -29.308594 C 42.054688 -31.144531 37.660156 -32.902344 31.960938 -34.570312 C 26.90625 -36.097656 23.0625 -37.65625 20.425781 -39.246094 C 16.945312 -41.347656 15.207031 -43.757812 15.207031 -46.472656 C 15.207031 -47.933594 15.585938 -49.238281 16.34375 -50.382812 C 17.066406 -51.472656 18.085938 -52.339844 19.402344 -52.988281 C 21.40625 -53.96875 24.382812 -54.460938 28.335938 -54.460938 C 31.308594 -54.460938 34.359375 -54.253906 37.484375 -53.84375 C 40.683594 -53.425781 43.625 -52.757812 46.304688 -51.84375 L 45.210938 -48.640625 L 46.207031 -51.875 C 47.445312 -51.492188 48.347656 -51.300781 48.910156 -51.300781 C 49.027344 -51.300781 49.105469 -51.320312 49.144531 -51.355469 C 49.46875 -51.667969 49.84375 -52.371094 50.261719 -53.464844 L 50.28125 -53.507812 L 50.296875 -53.550781 C 50.726562 -54.578125 50.941406 -55.378906 50.941406 -55.949219 C 50.941406 -56.085938 50.933594 -56.179688 50.917969 -56.226562 C 50.941406 -56.15625 50.988281 -56.085938 51.054688 -56.011719 C 50.789062 -56.296875 50.363281 -56.582031 49.789062 -56.871094 C 48.296875 -57.585938 46.660156 -58.238281 44.878906 -58.824219 C 43.144531 -59.394531 41.082031 -59.84375 38.695312 -60.175781 C 36.265625 -60.515625 33.292969 -60.6875 29.777344 -60.6875 C 21.539062 -60.6875 15.652344 -59.421875 12.121094 -56.894531 C 10.523438 -55.753906 9.335938 -54.386719 8.554688 -52.792969 C 7.753906 -51.15625 7.355469 -49.230469 7.355469 -47.015625 C 7.355469 -44.257812 7.859375 -41.902344 8.871094 -39.953125 C 9.832031 -38.097656 11.703125 -36.355469 14.480469 -34.730469 C 17.613281 -32.894531 22.152344 -30.996094 28.101562 -29.03125 C 32.46875 -27.640625 36.015625 -26.179688 38.742188 -24.65625 C 42.421875 -22.597656 44.261719 -20.121094 44.261719 -17.234375 C 44.261719 -15.707031 43.925781 -14.351562 43.257812 -13.171875 C 42.550781 -11.929688 41.527344 -10.960938 40.183594 -10.261719 C 38.191406 -9.226562 35.683594 -8.707031 32.667969 -8.707031 C 27.445312 -8.707031 22.964844 -9.195312 19.222656 -10.171875 C 15.527344 -11.136719 11.925781 -12.511719 8.414062 -14.300781 C 8.167969 -14.421875 7.980469 -14.484375 7.851562 -14.484375 C 7.6875 -14.484375 7.417969 -14.339844 7.050781 -14.058594 C 6.359375 -13.527344 5.609375 -12.667969 4.800781 -11.476562 C 4.457031 -10.964844 4.285156 -10.507812 4.285156 -10.105469 C 4.285156 -9.578125 4.828125 -8.960938 5.914062 -8.246094 C 8.746094 -6.394531 11.949219 -4.972656 15.523438 -3.984375 C 19.136719 -2.980469 23.769531 -2.480469 29.417969 -2.480469 Z M 29.417969 -2.480469 "/></g></g></g><g fill="#808080" fill-opacity="1"><g transform="translate(376.439761, 136.994994)"><g><path d="M 12.722656 4.285156 C 8.878906 4.285156 6.152344 3.71875 4.546875 2.585938 C 2.566406 1.1875 1.578125 -1.207031 1.578125 -4.601562 C 1.578125 -6.164062 1.640625 -8.148438 1.765625 -10.550781 L 2.125 -18.207031 L 2.484375 -26.585938 C 2.601562 -29.363281 2.660156 -31.933594 2.660156 -34.292969 L 2.660156 -41.285156 C 2.660156 -43.949219 2.648438 -46.660156 2.617188 -49.414062 L 2.527344 -57.035156 C 2.496094 -59.3125 2.453125 -61.0625 2.394531 -62.285156 L 2.394531 -62.324219 L 2.390625 -62.363281 C 2.300781 -66.082031 3.394531 -68.691406 5.671875 -70.191406 C 7.472656 -71.375 10.03125 -71.964844 13.355469 -71.964844 C 16.695312 -71.964844 19.117188 -71.214844 20.621094 -69.710938 C 22.09375 -68.242188 22.875 -66.1875 22.964844 -63.554688 L 19.582031 -63.4375 L 22.957031 -63.707031 C 23.082031 -62.140625 23.175781 -60.09375 23.234375 -57.566406 C 23.296875 -55.082031 23.34375 -52.34375 23.371094 -49.351562 C 23.402344 -46.359375 23.417969 -43.328125 23.417969 -40.246094 L 20.035156 -40.246094 L 17.523438 -42.515625 C 19.539062 -44.746094 21.929688 -46.457031 24.699219 -47.644531 C 27.441406 -48.820312 30.519531 -49.40625 33.929688 -49.40625 C 39.230469 -49.40625 43.570312 -48.425781 46.949219 -46.46875 C 50.394531 -44.476562 52.988281 -41.734375 54.734375 -38.242188 C 56.375 -34.960938 57.363281 -31.175781 57.699219 -26.882812 C 57.886719 -24.953125 57.980469 -22.941406 57.980469 -20.84375 C 57.980469 -17.714844 57.808594 -14.558594 57.464844 -11.367188 C 57.121094 -8.183594 56.636719 -5.125 56.011719 -2.183594 C 55.523438 0.257812 54.390625 2.023438 52.617188 3.109375 C 51.144531 4.015625 49.484375 4.46875 47.648438 4.46875 C 46.582031 4.46875 45.488281 4.355469 44.367188 4.128906 C 41.039062 3.511719 38.695312 2.425781 37.339844 0.875 C 35.808594 -0.871094 35.242188 -3.074219 35.636719 -5.730469 C 36.105469 -8.726562 36.457031 -11.800781 36.691406 -14.960938 C 36.925781 -18.125 37.042969 -21.050781 37.042969 -23.734375 C 37.042969 -26.058594 36.550781 -27.773438 35.5625 -28.875 C 34.667969 -29.867188 33.34375 -30.367188 31.585938 -30.367188 C 30.234375 -30.367188 28.976562 -30.007812 27.804688 -29.285156 C 26.683594 -28.597656 25.722656 -27.367188 24.925781 -25.59375 C 24.003906 -23.550781 23.410156 -20.625 23.136719 -16.8125 C 22.960938 -14.78125 22.8125 -12.378906 22.691406 -9.601562 C 22.566406 -6.632812 22.308594 -4.023438 21.925781 -1.773438 C 21.585938 0.371094 20.546875 1.972656 18.8125 3.027344 C 17.429688 3.867188 15.402344 4.285156 12.722656 4.285156 Z M 12.722656 -2.480469 C 13.546875 -2.480469 14.222656 -2.527344 14.75 -2.621094 C 15.054688 -2.675781 15.238281 -2.722656 15.300781 -2.757812 C 15.257812 -2.730469 15.222656 -2.695312 15.191406 -2.648438 C 15.210938 -2.675781 15.230469 -2.765625 15.253906 -2.917969 C 15.589844 -4.882812 15.816406 -7.207031 15.929688 -9.890625 C 16.054688 -12.769531 16.203125 -15.238281 16.386719 -17.296875 C 16.714844 -21.90625 17.503906 -25.597656 18.753906 -28.371094 C 20.121094 -31.410156 21.957031 -33.636719 24.261719 -35.054688 C 26.519531 -36.441406 28.960938 -37.132812 31.585938 -37.132812 C 35.359375 -37.132812 38.363281 -35.886719 40.601562 -33.390625 C 42.742188 -31.003906 43.8125 -27.785156 43.8125 -23.734375 C 43.8125 -20.882812 43.6875 -17.789062 43.441406 -14.460938 C 43.195312 -11.117188 42.824219 -7.878906 42.332031 -4.738281 C 42.242188 -4.144531 42.277344 -3.761719 42.433594 -3.582031 C 42.511719 -3.492188 42.738281 -3.367188 43.117188 -3.210938 C 43.75 -2.941406 44.609375 -2.707031 45.695312 -2.507812 C 46.375 -2.371094 47.027344 -2.300781 47.648438 -2.300781 C 48.214844 -2.300781 48.691406 -2.421875 49.082031 -2.660156 C 49.070312 -2.652344 49.058594 -2.644531 49.050781 -2.636719 C 49.066406 -2.652344 49.082031 -2.675781 49.101562 -2.710938 C 49.214844 -2.898438 49.308594 -3.191406 49.390625 -3.59375 C 49.96875 -6.304688 50.414062 -9.140625 50.734375 -12.09375 C 51.050781 -15.042969 51.210938 -17.957031 51.210938 -20.84375 C 51.210938 -22.722656 51.125 -24.558594 50.949219 -26.355469 C 50.683594 -29.769531 49.925781 -32.71875 48.679688 -35.214844 C 47.539062 -37.496094 45.832031 -39.296875 43.558594 -40.613281 C 41.226562 -41.960938 38.015625 -42.636719 33.929688 -42.636719 C 31.445312 -42.636719 29.257812 -42.234375 27.367188 -41.421875 C 25.503906 -40.625 23.898438 -39.476562 22.542969 -37.980469 L 16.648438 -31.453125 L 16.648438 -40.246094 C 16.648438 -43.304688 16.632812 -46.316406 16.605469 -49.28125 C 16.574219 -52.242188 16.53125 -54.949219 16.46875 -57.398438 C 16.410156 -59.804688 16.324219 -61.726562 16.207031 -63.167969 L 16.203125 -63.246094 L 16.199219 -63.320312 C 16.179688 -63.851562 16.117188 -64.277344 16.003906 -64.601562 C 15.949219 -64.761719 15.890625 -64.871094 15.835938 -64.925781 C 15.863281 -64.898438 15.890625 -64.875 15.917969 -64.855469 L 15.90625 -64.859375 C 15.820312 -64.902344 15.695312 -64.949219 15.527344 -64.992188 C 14.996094 -65.128906 14.269531 -65.199219 13.355469 -65.199219 C 11.382812 -65.199219 10.066406 -64.976562 9.394531 -64.539062 C 9.421875 -64.554688 9.4375 -64.570312 9.449219 -64.582031 C 9.421875 -64.546875 9.390625 -64.480469 9.355469 -64.386719 C 9.203125 -63.960938 9.140625 -63.34375 9.160156 -62.527344 L 5.773438 -62.445312 L 9.15625 -62.605469 C 9.21875 -61.304688 9.265625 -59.476562 9.292969 -57.117188 L 9.386719 -49.488281 C 9.414062 -46.707031 9.429688 -43.972656 9.429688 -41.285156 L 9.429688 -34.292969 C 9.429688 -31.835938 9.367188 -29.171875 9.246094 -26.292969 L 8.886719 -17.890625 L 8.523438 -10.203125 C 8.40625 -7.914062 8.347656 -6.046875 8.347656 -4.601562 C 8.347656 -3.871094 8.414062 -3.3125 8.542969 -2.9375 C 8.570312 -2.863281 8.589844 -2.820312 8.601562 -2.800781 C 8.566406 -2.851562 8.515625 -2.898438 8.449219 -2.945312 C 8.433594 -2.953125 8.421875 -2.960938 8.414062 -2.96875 C 8.414062 -2.96875 8.417969 -2.96875 8.421875 -2.964844 C 8.460938 -2.945312 8.511719 -2.925781 8.578125 -2.902344 C 8.789062 -2.828125 9.066406 -2.761719 9.402344 -2.703125 C 10.246094 -2.554688 11.355469 -2.480469 12.722656 -2.480469 Z M 12.722656 -2.480469 "/></g></g></g><g fill="#808080" fill-opacity="1"><g transform="translate(438.160308, 136.994994)"><g><path d="M 28.246094 4.285156 C 18.46875 4.285156 11.289062 1.785156 6.707031 -3.21875 C 2.207031 -8.136719 -0.046875 -14.824219 -0.046875 -23.28125 C -0.046875 -28.066406 1.023438 -32.425781 3.164062 -36.359375 C 5.339844 -40.363281 8.550781 -43.546875 12.789062 -45.910156 C 16.972656 -48.242188 22.0625 -49.40625 28.066406 -49.40625 C 33.199219 -49.40625 37.628906 -48.757812 41.359375 -47.457031 C 45.21875 -46.117188 48.441406 -44.148438 51.03125 -41.558594 L 48.640625 -39.164062 L 50.886719 -41.695312 C 52.726562 -40.058594 53.648438 -38.042969 53.648438 -35.644531 C 53.648438 -34.332031 53.289062 -32.953125 52.570312 -31.515625 L 49.542969 -33.027344 L 52.117188 -35.222656 C 53.765625 -33.289062 55.035156 -31.089844 55.925781 -28.632812 C 56.8125 -26.183594 57.257812 -23.527344 57.257812 -20.664062 C 57.257812 -12.910156 54.710938 -6.785156 49.613281 -2.289062 C 44.644531 2.09375 37.519531 4.285156 28.246094 4.285156 Z M 28.246094 -2.480469 C 35.816406 -2.480469 41.445312 -4.109375 45.136719 -7.367188 C 48.707031 -10.511719 50.488281 -14.945312 50.488281 -20.664062 C 50.488281 -22.734375 50.179688 -24.621094 49.5625 -26.324219 C 48.949219 -28.015625 48.085938 -29.519531 46.964844 -30.832031 L 45.511719 -32.539062 L 46.515625 -34.542969 C 46.757812 -35.027344 46.878906 -35.394531 46.878906 -35.644531 C 46.878906 -36.015625 46.714844 -36.34375 46.390625 -36.636719 L 46.316406 -36.699219 L 46.246094 -36.769531 C 44.386719 -38.632812 42.015625 -40.0625 39.132812 -41.066406 C 36.125 -42.113281 32.4375 -42.636719 28.066406 -42.636719 C 23.238281 -42.636719 19.242188 -41.757812 16.085938 -40 C 12.988281 -38.269531 10.660156 -35.980469 9.109375 -33.125 C 7.519531 -30.199219 6.722656 -26.917969 6.722656 -23.28125 C 6.722656 -16.578125 8.382812 -11.414062 11.699219 -7.789062 C 14.941406 -4.25 20.457031 -2.480469 28.246094 -2.480469 Z M 20.53125 -22.742188 C 20.53125 -19.910156 21.203125 -17.875 22.550781 -16.636719 C 23.976562 -15.320312 26.328125 -14.664062 29.597656 -14.664062 C 32.285156 -14.664062 34.113281 -15.136719 35.078125 -16.085938 C 36.027344 -17.015625 36.5 -18.273438 36.5 -19.851562 C 36.5 -21.804688 35.847656 -23.378906 34.539062 -24.570312 L 36.816406 -27.070312 L 34.703125 -24.429688 C 33.828125 -25.128906 33.113281 -25.894531 32.558594 -26.730469 C 31.820312 -27.839844 31.449219 -29.066406 31.449219 -30.410156 C 31.449219 -31.34375 31.6875 -32.378906 32.160156 -33.515625 L 35.285156 -32.214844 L 33.910156 -29.125 C 33.058594 -29.5 32.144531 -29.785156 31.160156 -29.976562 C 30.140625 -30.175781 29.050781 -30.273438 27.882812 -30.273438 C 25.679688 -30.273438 23.898438 -29.605469 22.542969 -28.269531 C 21.199219 -26.949219 20.53125 -25.105469 20.53125 -22.742188 Z M 13.761719 -22.742188 C 13.761719 -26.992188 15.105469 -30.445312 17.792969 -33.09375 C 20.46875 -35.726562 23.832031 -37.042969 27.882812 -37.042969 C 29.484375 -37.042969 31.011719 -36.902344 32.457031 -36.621094 C 33.941406 -36.332031 35.34375 -35.894531 36.660156 -35.308594 L 39.679688 -33.964844 L 38.40625 -30.914062 C 38.324219 -30.710938 38.261719 -30.539062 38.230469 -30.402344 L 38.21875 -30.410156 C 38.21875 -30.433594 38.207031 -30.457031 38.191406 -30.484375 C 38.355469 -30.234375 38.605469 -29.976562 38.933594 -29.714844 L 39.097656 -29.574219 C 41.878906 -27.035156 43.269531 -23.796875 43.269531 -19.851562 C 43.269531 -16.378906 42.121094 -13.511719 39.820312 -11.257812 C 37.539062 -9.015625 34.128906 -7.894531 29.597656 -7.894531 C 24.566406 -7.894531 20.691406 -9.148438 17.96875 -11.65625 C 15.164062 -14.234375 13.761719 -17.929688 13.761719 -22.742188 Z M 13.761719 -22.742188 "/></g></g></g><g fill="#808080" fill-opacity="1"><g transform="translate(497.444499, 136.994994)"><g><path d="M 20.214844 4.285156 C 16.066406 4.285156 12.542969 2.640625 9.644531 -0.652344 C 7.410156 -3.089844 5.589844 -6.53125 4.175781 -10.976562 C 2.847656 -15.144531 1.855469 -19.875 1.199219 -25.164062 C 0.550781 -30.386719 0.226562 -35.746094 0.226562 -41.238281 C 0.226562 -43.992188 1.253906 -46.105469 3.308594 -47.578125 C 5.011719 -48.796875 7.335938 -49.40625 10.289062 -49.40625 C 12.933594 -49.40625 15.148438 -49.007812 16.941406 -48.210938 C 18.289062 -47.613281 19.316406 -46.703125 20.019531 -45.480469 C 20.660156 -44.371094 20.980469 -43.078125 20.980469 -41.601562 C 20.980469 -39.074219 21.15625 -36.1875 21.503906 -32.9375 C 21.855469 -29.664062 22.320312 -26.523438 22.902344 -23.519531 C 23.476562 -20.566406 24.074219 -18.167969 24.6875 -16.320312 L 21.476562 -15.25 L 18.496094 -16.855469 C 19.277344 -18.304688 20.109375 -20.140625 20.996094 -22.367188 C 21.917969 -24.691406 22.875 -27.167969 23.859375 -29.792969 C 24.867188 -32.488281 25.925781 -35.125 27.03125 -37.699219 C 28.160156 -40.339844 29.296875 -42.671875 30.4375 -44.703125 L 30.597656 -44.980469 L 30.800781 -45.226562 C 33.101562 -47.953125 35.828125 -49.316406 38.984375 -49.316406 C 42.371094 -49.316406 45.273438 -47.898438 47.695312 -45.058594 L 47.898438 -44.824219 L 48.054688 -44.550781 C 49.269531 -42.4375 50.449219 -39.984375 51.589844 -37.195312 C 52.699219 -34.488281 53.746094 -31.6875 54.730469 -28.792969 C 55.6875 -25.980469 56.601562 -23.34375 57.46875 -20.890625 C 58.308594 -18.523438 59.066406 -16.605469 59.742188 -15.132812 L 56.671875 -13.714844 L 53.722656 -15.382812 C 54.402344 -16.578125 55.082031 -18.191406 55.765625 -20.214844 C 56.480469 -22.332031 57.128906 -24.644531 57.703125 -27.152344 C 58.285156 -29.671875 58.746094 -32.191406 59.09375 -34.707031 C 59.433594 -37.171875 59.601562 -39.410156 59.601562 -41.421875 C 59.601562 -44.28125 60.582031 -46.394531 62.542969 -47.761719 C 64.117188 -48.859375 66.429688 -49.40625 69.484375 -49.40625 C 72.25 -49.40625 74.492188 -49.074219 76.210938 -48.410156 C 77.667969 -47.847656 78.761719 -46.867188 79.484375 -45.46875 C 80.066406 -44.339844 80.359375 -42.992188 80.359375 -41.421875 C 80.359375 -35.34375 79.792969 -29.675781 78.660156 -24.417969 C 77.519531 -19.128906 75.957031 -14.441406 73.972656 -10.347656 C 71.917969 -6.097656 69.492188 -2.714844 66.699219 -0.195312 C 63.414062 2.792969 59.648438 4.285156 55.40625 4.285156 C 53.359375 4.285156 51.445312 3.832031 49.667969 2.921875 C 48.03125 2.082031 46.566406 0.980469 45.277344 -0.382812 L 47.738281 -2.707031 L 45.34375 -0.3125 C 43.917969 -1.742188 42.5625 -3.839844 41.28125 -6.609375 C 40.109375 -9.140625 39.023438 -11.960938 38.019531 -15.066406 C 37.039062 -18.101562 36.148438 -21.121094 35.351562 -24.128906 L 38.621094 -24.996094 L 41.894531 -24.128906 C 41.085938 -21.082031 40.125 -18.023438 39.003906 -14.953125 C 37.878906 -11.851562 36.683594 -9.039062 35.421875 -6.519531 C 34.03125 -3.730469 32.542969 -1.625 30.96875 -0.199219 L 28.695312 -2.707031 L 31.023438 -0.25 C 29.617188 1.082031 28.039062 2.160156 26.296875 2.976562 C 24.425781 3.847656 22.398438 4.285156 20.214844 4.285156 Z M 20.214844 -2.480469 C 21.394531 -2.480469 22.46875 -2.707031 23.425781 -3.15625 C 24.511719 -3.664062 25.492188 -4.332031 26.367188 -5.164062 L 26.398438 -5.191406 L 26.425781 -5.214844 C 27.375 -6.074219 28.355469 -7.519531 29.371094 -9.542969 C 30.515625 -11.835938 31.605469 -14.410156 32.644531 -17.265625 C 33.691406 -20.148438 34.59375 -23.015625 35.351562 -25.863281 L 38.621094 -38.195312 L 41.894531 -25.863281 C 42.660156 -22.972656 43.515625 -20.070312 44.460938 -17.148438 C 45.378906 -14.300781 46.367188 -11.734375 47.425781 -9.453125 C 48.367188 -7.410156 49.269531 -5.960938 50.128906 -5.101562 L 50.199219 -5.03125 C 50.953125 -4.230469 51.804688 -3.585938 52.753906 -3.101562 C 53.5625 -2.6875 54.445312 -2.480469 55.40625 -2.480469 C 57.902344 -2.480469 60.15625 -3.394531 62.164062 -5.21875 C 64.304688 -7.152344 66.210938 -9.84375 67.882812 -13.296875 C 69.628906 -16.902344 71.015625 -21.085938 72.042969 -25.84375 C 73.074219 -30.632812 73.589844 -35.824219 73.589844 -41.421875 C 73.589844 -41.894531 73.550781 -42.207031 73.472656 -42.355469 C 73.535156 -42.238281 73.632812 -42.152344 73.769531 -42.097656 C 72.839844 -42.457031 71.410156 -42.636719 69.484375 -42.636719 C 68.542969 -42.636719 67.769531 -42.574219 67.160156 -42.449219 C 66.777344 -42.371094 66.527344 -42.289062 66.410156 -42.207031 C 66.4375 -42.226562 66.457031 -42.246094 66.476562 -42.273438 L 66.484375 -42.269531 C 66.410156 -42.09375 66.371094 -41.808594 66.371094 -41.421875 C 66.371094 -39.097656 66.179688 -36.554688 65.796875 -33.785156 C 65.425781 -31.066406 64.925781 -28.351562 64.300781 -25.636719 C 63.671875 -22.910156 62.964844 -20.378906 62.179688 -18.046875 C 61.359375 -15.621094 60.503906 -13.621094 59.617188 -12.050781 L 56.367188 -6.300781 L 53.597656 -12.296875 C 52.832031 -13.957031 51.996094 -16.070312 51.089844 -18.632812 C 50.210938 -21.113281 49.289062 -23.773438 48.324219 -26.613281 C 47.382812 -29.375 46.382812 -32.050781 45.328125 -34.632812 C 44.300781 -37.140625 43.253906 -39.320312 42.1875 -41.175781 L 45.121094 -42.863281 L 42.546875 -40.667969 C 41.476562 -41.921875 40.289062 -42.546875 38.984375 -42.546875 C 37.925781 -42.546875 36.921875 -41.984375 35.976562 -40.863281 L 33.390625 -43.042969 L 36.339844 -41.386719 C 35.316406 -39.566406 34.285156 -37.449219 33.25 -35.035156 C 32.1875 -32.554688 31.171875 -30.015625 30.195312 -27.417969 C 29.195312 -24.75 28.226562 -22.234375 27.285156 -19.867188 C 26.304688 -17.398438 25.359375 -15.324219 24.457031 -13.644531 L 20.742188 -6.75 L 18.265625 -14.179688 C 17.558594 -16.304688 16.890625 -18.988281 16.261719 -22.230469 C 15.640625 -25.421875 15.144531 -28.75 14.773438 -32.214844 C 14.398438 -35.703125 14.210938 -38.832031 14.210938 -41.601562 C 14.210938 -41.867188 14.195312 -42.035156 14.15625 -42.097656 C 14.175781 -42.066406 14.199219 -42.039062 14.226562 -42.011719 C 14.234375 -42.007812 14.238281 -42.003906 14.242188 -42.003906 C 14.230469 -42.007812 14.214844 -42.019531 14.191406 -42.027344 C 13.277344 -42.433594 11.972656 -42.636719 10.289062 -42.636719 C 8.785156 -42.636719 7.773438 -42.449219 7.25 -42.074219 C 7.078125 -41.953125 6.992188 -41.675781 6.992188 -41.238281 C 6.992188 -36.023438 7.300781 -30.945312 7.914062 -26 C 8.519531 -21.125 9.425781 -16.800781 10.625 -13.027344 C 11.738281 -9.53125 13.101562 -6.894531 14.722656 -5.125 C 16.273438 -3.363281 18.105469 -2.480469 20.214844 -2.480469 Z M 20.214844 -2.480469 "/></g></g></g><g fill="#ffffff" fill-opacity="1"><g transform="translate(124.594546, 136.994994)"><g><path d="M 21.03125 0.90625 C 15.007812 0.90625 10.476562 -0.414062 7.4375 -3.0625 C 4.40625 -5.707031 2.890625 -9.289062 2.890625 -13.8125 C 2.890625 -16.757812 3.566406 -19.34375 4.921875 -21.5625 C 6.273438 -23.789062 8.484375 -25.535156 11.546875 -26.796875 C 14.617188 -28.054688 18.710938 -28.6875 23.828125 -28.6875 C 26.347656 -28.6875 28.828125 -28.296875 31.265625 -27.515625 C 33.703125 -26.734375 35.820312 -25.648438 37.625 -24.265625 C 37.625 -24.929688 37.609375 -25.59375 37.578125 -26.25 C 37.546875 -26.914062 37.503906 -27.488281 37.453125 -27.96875 C 37.148438 -30.257812 36.035156 -32.003906 34.109375 -33.203125 C 32.179688 -34.410156 29.710938 -35.015625 26.703125 -35.015625 C 24.421875 -35.015625 22.347656 -34.757812 20.484375 -34.25 C 18.617188 -33.738281 16.753906 -33.117188 14.890625 -32.390625 C 14.285156 -32.210938 13.742188 -32.0625 13.265625 -31.9375 C 12.785156 -31.820312 12.304688 -31.765625 11.828125 -31.765625 C 10.796875 -31.765625 9.9375 -32.0625 9.25 -32.65625 C 8.5625 -33.257812 7.882812 -34.195312 7.21875 -35.46875 C 6.613281 -36.664062 6.3125 -37.742188 6.3125 -38.703125 C 6.3125 -39.546875 6.535156 -40.285156 6.984375 -40.921875 C 7.441406 -41.554688 8.0625 -42.082031 8.84375 -42.5 C 10.882812 -43.707031 13.570312 -44.59375 16.90625 -45.15625 C 20.25 -45.726562 23.96875 -46.015625 28.0625 -46.015625 C 32.570312 -46.015625 36.613281 -45.289062 40.1875 -43.84375 C 43.769531 -42.40625 46.582031 -40.316406 48.625 -37.578125 C 50.675781 -34.847656 51.703125 -31.523438 51.703125 -27.609375 C 51.703125 -24.898438 51.65625 -22.6875 51.5625 -20.96875 C 51.476562 -19.257812 51.4375 -17.441406 51.4375 -15.515625 C 51.4375 -14.078125 51.660156 -12.546875 52.109375 -10.921875 C 52.554688 -9.296875 53.023438 -7.972656 53.515625 -6.953125 C 53.867188 -6.171875 54.046875 -5.414062 54.046875 -4.6875 C 54.046875 -2.757812 52.363281 -1.164062 49 0.09375 C 47.550781 0.570312 46.285156 0.8125 45.203125 0.8125 C 42.441406 0.8125 40.726562 -0.390625 40.0625 -2.796875 C 39.820312 -3.398438 39.609375 -3.941406 39.421875 -4.421875 C 39.242188 -4.898438 39.097656 -5.351562 38.984375 -5.78125 C 37.117188 -3.914062 34.769531 -2.332031 31.9375 -1.03125 C 29.113281 0.257812 25.476562 0.90625 21.03125 0.90625 Z M 16.875 -15.0625 C 16.875 -11.820312 19.460938 -10.203125 24.640625 -10.203125 C 27.097656 -10.203125 29.242188 -10.578125 31.078125 -11.328125 C 32.921875 -12.078125 34.710938 -13.265625 36.453125 -14.890625 C 35.304688 -16.515625 33.664062 -17.773438 31.53125 -18.671875 C 29.394531 -19.578125 27.15625 -20.03125 24.8125 -20.03125 C 21.988281 -20.03125 19.957031 -19.5625 18.71875 -18.625 C 17.488281 -17.695312 16.875 -16.507812 16.875 -15.0625 Z M 16.875 -15.0625 "/></g></g></g><g fill="#ffffff" fill-opacity="1"><g transform="translate(183.698275, 136.994994)"><g><path d="M 25.53125 0.90625 C 20.300781 0.90625 16.195312 -0.382812 13.21875 -2.96875 C 10.238281 -5.5625 8.75 -9.863281 8.75 -15.875 C 8.75 -18.519531 8.78125 -21.285156 8.84375 -24.171875 C 8.90625 -27.066406 8.960938 -29.957031 9.015625 -32.84375 L 6.953125 -32.84375 C 4.660156 -32.84375 3.078125 -33.351562 2.203125 -34.375 C 1.335938 -35.394531 0.90625 -36.988281 0.90625 -39.15625 C 0.90625 -41.382812 1.335938 -42.945312 2.203125 -43.84375 C 3.078125 -44.75 4.71875 -45.203125 7.125 -45.203125 L 9.390625 -45.203125 C 9.441406 -47.066406 9.515625 -48.84375 9.609375 -50.53125 C 9.703125 -52.21875 9.773438 -53.722656 9.828125 -55.046875 C 9.953125 -56.785156 10.492188 -57.957031 11.453125 -58.5625 C 12.421875 -59.164062 13.75 -59.46875 15.4375 -59.46875 C 18.625 -59.46875 20.863281 -59.0625 22.15625 -58.25 C 23.445312 -57.4375 23.972656 -55.859375 23.734375 -53.515625 C 23.671875 -52.429688 23.59375 -51.179688 23.5 -49.765625 C 23.414062 -48.347656 23.34375 -46.796875 23.28125 -45.109375 C 25.019531 -45.054688 26.703125 -45.03125 28.328125 -45.03125 C 29.953125 -45.03125 31.335938 -45.03125 32.484375 -45.03125 C 34.523438 -45.03125 35.953125 -44.515625 36.765625 -43.484375 C 37.578125 -42.460938 37.984375 -40.929688 37.984375 -38.890625 C 37.984375 -36.847656 37.609375 -35.3125 36.859375 -34.28125 C 36.109375 -33.257812 34.710938 -32.75 32.671875 -32.75 L 22.921875 -32.75 C 22.859375 -30.101562 22.828125 -27.441406 22.828125 -24.765625 C 22.828125 -22.085938 22.828125 -19.578125 22.828125 -17.234375 C 22.828125 -15.367188 23.320312 -13.9375 24.3125 -12.9375 C 25.3125 -11.945312 26.53125 -11.453125 27.96875 -11.453125 C 28.75 -11.453125 29.53125 -11.570312 30.3125 -11.8125 C 31.09375 -12.0625 31.96875 -12.484375 32.9375 -13.078125 C 33.539062 -13.378906 34.140625 -13.53125 34.734375 -13.53125 C 35.515625 -13.53125 36.3125 -13.210938 37.125 -12.578125 C 37.9375 -11.953125 38.734375 -10.945312 39.515625 -9.5625 C 39.816406 -8.957031 40.039062 -8.414062 40.1875 -7.9375 C 40.34375 -7.457031 40.421875 -6.976562 40.421875 -6.5 C 40.421875 -4.75 39.3125 -3.273438 37.09375 -2.078125 C 35.34375 -0.929688 33.640625 -0.148438 31.984375 0.265625 C 30.328125 0.691406 28.175781 0.90625 25.53125 0.90625 Z M 25.53125 0.90625 "/></g></g></g><g fill="#ffffff" fill-opacity="1"><g transform="translate(227.191463, 136.994994)"><g><path d="M 12.71875 0.90625 C 9.59375 0.90625 7.519531 0.546875 6.5 -0.171875 C 5.476562 -0.898438 4.96875 -2.378906 4.96875 -4.609375 C 4.96875 -6.109375 5.023438 -8.03125 5.140625 -10.375 C 5.265625 -12.71875 5.382812 -15.273438 5.5 -18.046875 C 5.625 -20.816406 5.742188 -23.613281 5.859375 -26.4375 C 5.984375 -29.257812 6.046875 -31.875 6.046875 -34.28125 C 6.046875 -36.269531 6.046875 -38.601562 6.046875 -41.28125 C 6.046875 -43.957031 6.03125 -46.675781 6 -49.4375 C 5.96875 -52.207031 5.9375 -54.75 5.90625 -57.0625 C 5.875 -59.382812 5.832031 -61.175781 5.78125 -62.4375 C 5.71875 -64.90625 6.300781 -66.546875 7.53125 -67.359375 C 8.769531 -68.171875 10.710938 -68.578125 13.359375 -68.578125 C 15.765625 -68.578125 17.382812 -68.15625 18.21875 -67.3125 C 19.0625 -66.46875 19.515625 -65.175781 19.578125 -63.4375 C 19.703125 -61.925781 19.789062 -59.9375 19.84375 -57.46875 C 19.90625 -55.007812 19.953125 -52.289062 19.984375 -49.3125 C 20.015625 -46.332031 20.03125 -43.3125 20.03125 -40.25 C 21.71875 -42.113281 23.71875 -43.539062 26.03125 -44.53125 C 28.34375 -45.519531 30.972656 -46.015625 33.921875 -46.015625 C 38.617188 -46.015625 42.394531 -45.1875 45.25 -43.53125 C 48.101562 -41.882812 50.253906 -39.613281 51.703125 -36.71875 C 53.148438 -33.832031 54.023438 -30.46875 54.328125 -26.625 C 54.503906 -24.757812 54.59375 -22.832031 54.59375 -20.84375 C 54.59375 -17.832031 54.425781 -14.789062 54.09375 -11.71875 C 53.757812 -8.65625 53.296875 -5.710938 52.703125 -2.890625 C 52.398438 -1.378906 51.78125 -0.34375 50.84375 0.21875 C 49.914062 0.789062 48.847656 1.078125 47.640625 1.078125 C 46.796875 1.078125 45.925781 0.988281 45.03125 0.8125 C 42.4375 0.332031 40.71875 -0.382812 39.875 -1.34375 C 39.039062 -2.3125 38.742188 -3.609375 38.984375 -5.234375 C 39.460938 -8.296875 39.820312 -11.453125 40.0625 -14.703125 C 40.300781 -17.953125 40.421875 -20.960938 40.421875 -23.734375 C 40.421875 -26.921875 39.640625 -29.382812 38.078125 -31.125 C 36.515625 -32.875 34.347656 -33.75 31.578125 -33.75 C 29.597656 -33.75 27.75 -33.222656 26.03125 -32.171875 C 24.3125 -31.117188 22.910156 -29.390625 21.828125 -26.984375 C 20.753906 -24.578125 20.066406 -21.265625 19.765625 -17.046875 C 19.578125 -15.003906 19.421875 -12.566406 19.296875 -9.734375 C 19.179688 -6.910156 18.945312 -4.445312 18.59375 -2.34375 C 18.40625 -1.195312 17.890625 -0.367188 17.046875 0.140625 C 16.210938 0.648438 14.769531 0.90625 12.71875 0.90625 Z M 12.71875 0.90625 "/></g></g></g><g fill="#ffffff" fill-opacity="1"><g transform="translate(288.911988, 136.994994)"><g><path d="M 12.359375 0.90625 C 9.296875 0.90625 7.28125 0.484375 6.3125 -0.359375 C 5.351562 -1.203125 4.875 -2.585938 4.875 -4.515625 C 4.875 -7.335938 4.976562 -10.039062 5.1875 -12.625 C 5.394531 -15.21875 5.53125 -18.226562 5.59375 -21.65625 C 5.65625 -23.457031 5.703125 -25.140625 5.734375 -26.703125 C 5.765625 -28.273438 5.78125 -29.8125 5.78125 -31.3125 C 5.78125 -32.695312 5.75 -34.078125 5.6875 -35.453125 C 5.625 -36.835938 5.59375 -38.285156 5.59375 -39.796875 C 5.59375 -41.660156 6 -43.070312 6.8125 -44.03125 C 7.625 -45 9.144531 -45.628906 11.375 -45.921875 C 11.726562 -45.984375 12.085938 -46.015625 12.453125 -46.015625 C 12.816406 -46.015625 13.144531 -46.015625 13.4375 -46.015625 C 15.1875 -46.015625 16.570312 -45.640625 17.59375 -44.890625 C 18.613281 -44.140625 19.21875 -42.890625 19.40625 -41.140625 C 19.582031 -38.921875 19.671875 -36.847656 19.671875 -34.921875 C 19.671875 -33.773438 19.65625 -32.597656 19.625 -31.390625 C 19.59375 -30.191406 19.578125 -28.929688 19.578125 -27.609375 C 19.578125 -26.523438 19.515625 -24.988281 19.390625 -23 C 19.273438 -21.019531 19.171875 -18.898438 19.078125 -16.640625 C 18.992188 -14.390625 18.90625 -12.238281 18.8125 -10.1875 C 18.71875 -8.144531 18.671875 -6.523438 18.671875 -5.328125 C 18.671875 -2.921875 18.160156 -1.28125 17.140625 -0.40625 C 16.117188 0.46875 14.523438 0.90625 12.359375 0.90625 Z M 5.40625 -59.640625 C 5.40625 -60.242188 5.421875 -60.816406 5.453125 -61.359375 C 5.484375 -61.898438 5.5 -62.472656 5.5 -63.078125 C 5.5 -65.054688 6.039062 -66.46875 7.125 -67.3125 C 8.207031 -68.15625 9.984375 -68.578125 12.453125 -68.578125 C 15.398438 -68.578125 17.414062 -68.125 18.5 -67.21875 C 19.582031 -66.320312 20.125 -65.117188 20.125 -63.609375 C 20.125 -62.234375 20.125 -61.015625 20.125 -59.953125 C 20.125 -58.898438 20.0625 -57.957031 19.9375 -57.125 C 19.757812 -55.132812 19.113281 -53.804688 18 -53.140625 C 16.882812 -52.484375 15.09375 -52.15625 12.625 -52.15625 C 10.40625 -52.15625 8.78125 -52.441406 7.75 -53.015625 C 6.726562 -53.585938 6.082031 -54.425781 5.8125 -55.53125 C 5.539062 -56.644531 5.40625 -58.015625 5.40625 -59.640625 Z M 5.40625 -59.640625 "/></g></g></g><g fill="#ffffff" fill-opacity="1"><g transform="translate(316.072764, 136.994994)"><g><path d="M 29.421875 0.90625 C 23.460938 0.90625 18.523438 0.363281 14.609375 -0.71875 C 10.703125 -1.800781 7.1875 -3.363281 4.0625 -5.40625 C 1.957031 -6.789062 0.90625 -8.359375 0.90625 -10.109375 C 0.90625 -11.191406 1.265625 -12.273438 1.984375 -13.359375 C 4.023438 -16.359375 5.976562 -17.859375 7.84375 -17.859375 C 8.507812 -17.859375 9.203125 -17.679688 9.921875 -17.328125 C 13.234375 -15.640625 16.617188 -14.34375 20.078125 -13.4375 C 23.535156 -12.539062 27.734375 -12.09375 32.671875 -12.09375 C 35.128906 -12.09375 37.109375 -12.484375 38.609375 -13.265625 C 40.117188 -14.046875 40.875 -15.367188 40.875 -17.234375 C 40.875 -18.796875 39.609375 -20.285156 37.078125 -21.703125 C 34.554688 -23.117188 31.21875 -24.488281 27.0625 -25.8125 C 20.875 -27.851562 16.109375 -29.847656 12.765625 -31.796875 C 9.429688 -33.753906 7.128906 -35.953125 5.859375 -38.390625 C 4.597656 -40.828125 3.96875 -43.703125 3.96875 -47.015625 C 3.96875 -52.484375 6.023438 -56.691406 10.140625 -59.640625 C 14.265625 -62.585938 20.8125 -64.0625 29.78125 -64.0625 C 33.445312 -64.0625 36.570312 -63.878906 39.15625 -63.515625 C 41.75 -63.160156 44.003906 -62.664062 45.921875 -62.03125 C 47.847656 -61.40625 49.625 -60.703125 51.25 -59.921875 C 52.21875 -59.429688 52.972656 -58.898438 53.515625 -58.328125 C 54.054688 -57.765625 54.328125 -56.96875 54.328125 -55.9375 C 54.328125 -54.914062 54.023438 -53.6875 53.421875 -52.25 C 52.816406 -50.6875 52.164062 -49.570312 51.46875 -48.90625 C 50.78125 -48.25 49.925781 -47.921875 48.90625 -47.921875 C 48 -47.921875 46.765625 -48.160156 45.203125 -48.640625 C 42.734375 -49.484375 40.007812 -50.097656 37.03125 -50.484375 C 34.0625 -50.878906 31.160156 -51.078125 28.328125 -51.078125 C 24.898438 -51.078125 22.421875 -50.695312 20.890625 -49.9375 C 19.359375 -49.1875 18.59375 -48.03125 18.59375 -46.46875 C 18.59375 -43.582031 23.375 -40.695312 32.9375 -37.8125 C 38.894531 -36.0625 43.539062 -34.191406 46.875 -32.203125 C 50.21875 -30.222656 52.5625 -28.046875 53.90625 -25.671875 C 55.257812 -23.296875 55.9375 -20.664062 55.9375 -17.78125 C 55.9375 -14.289062 55.15625 -11.128906 53.59375 -8.296875 C 52.03125 -5.472656 49.335938 -3.234375 45.515625 -1.578125 C 41.703125 0.078125 36.335938 0.90625 29.421875 0.90625 Z M 29.421875 0.90625 "/></g></g></g><g fill="#ffffff" fill-opacity="1"><g transform="translate(376.439761, 136.994994)"><g><path d="M 12.71875 0.90625 C 9.59375 0.90625 7.519531 0.546875 6.5 -0.171875 C 5.476562 -0.898438 4.96875 -2.378906 4.96875 -4.609375 C 4.96875 -6.109375 5.023438 -8.03125 5.140625 -10.375 C 5.265625 -12.71875 5.382812 -15.273438 5.5 -18.046875 C 5.625 -20.816406 5.742188 -23.613281 5.859375 -26.4375 C 5.984375 -29.257812 6.046875 -31.875 6.046875 -34.28125 C 6.046875 -36.269531 6.046875 -38.601562 6.046875 -41.28125 C 6.046875 -43.957031 6.03125 -46.675781 6 -49.4375 C 5.96875 -52.207031 5.9375 -54.75 5.90625 -57.0625 C 5.875 -59.382812 5.832031 -61.175781 5.78125 -62.4375 C 5.71875 -64.90625 6.300781 -66.546875 7.53125 -67.359375 C 8.769531 -68.171875 10.710938 -68.578125 13.359375 -68.578125 C 15.765625 -68.578125 17.382812 -68.15625 18.21875 -67.3125 C 19.0625 -66.46875 19.515625 -65.175781 19.578125 -63.4375 C 19.703125 -61.925781 19.789062 -59.9375 19.84375 -57.46875 C 19.90625 -55.007812 19.953125 -52.289062 19.984375 -49.3125 C 20.015625 -46.332031 20.03125 -43.3125 20.03125 -40.25 C 21.71875 -42.113281 23.71875 -43.539062 26.03125 -44.53125 C 28.34375 -45.519531 30.972656 -46.015625 33.921875 -46.015625 C 38.617188 -46.015625 42.394531 -45.1875 45.25 -43.53125 C 48.101562 -41.882812 50.253906 -39.613281 51.703125 -36.71875 C 53.148438 -33.832031 54.023438 -30.46875 54.328125 -26.625 C 54.503906 -24.757812 54.59375 -22.832031 54.59375 -20.84375 C 54.59375 -17.832031 54.425781 -14.789062 54.09375 -11.71875 C 53.757812 -8.65625 53.296875 -5.710938 52.703125 -2.890625 C 52.398438 -1.378906 51.78125 -0.34375 50.84375 0.21875 C 49.914062 0.789062 48.847656 1.078125 47.640625 1.078125 C 46.796875 1.078125 45.925781 0.988281 45.03125 0.8125 C 42.4375 0.332031 40.71875 -0.382812 39.875 -1.34375 C 39.039062 -2.3125 38.742188 -3.609375 38.984375 -5.234375 C 39.460938 -8.296875 39.820312 -11.453125 40.0625 -14.703125 C 40.300781 -17.953125 40.421875 -20.960938 40.421875 -23.734375 C 40.421875 -26.921875 39.640625 -29.382812 38.078125 -31.125 C 36.515625 -32.875 34.347656 -33.75 31.578125 -33.75 C 29.597656 -33.75 27.75 -33.222656 26.03125 -32.171875 C 24.3125 -31.117188 22.910156 -29.390625 21.828125 -26.984375 C 20.753906 -24.578125 20.066406 -21.265625 19.765625 -17.046875 C 19.578125 -15.003906 19.421875 -12.566406 19.296875 -9.734375 C 19.179688 -6.910156 18.945312 -4.445312 18.59375 -2.34375 C 18.40625 -1.195312 17.890625 -0.367188 17.046875 0.140625 C 16.210938 0.648438 14.769531 0.90625 12.71875 0.90625 Z M 12.71875 0.90625 "/></g></g></g><g fill="#ffffff" fill-opacity="1"><g transform="translate(438.160308, 136.994994)"><g><path d="M 28.25 0.90625 C 19.457031 0.90625 13.109375 -1.226562 9.203125 -5.5 C 5.296875 -9.769531 3.34375 -15.695312 3.34375 -23.28125 C 3.34375 -27.488281 4.273438 -31.304688 6.140625 -34.734375 C 8.003906 -38.171875 10.769531 -40.910156 14.4375 -42.953125 C 18.101562 -44.992188 22.644531 -46.015625 28.0625 -46.015625 C 32.8125 -46.015625 36.867188 -45.425781 40.234375 -44.25 C 43.609375 -43.082031 46.410156 -41.382812 48.640625 -39.15625 C 49.722656 -38.195312 50.265625 -37.023438 50.265625 -35.640625 C 50.265625 -34.859375 50.019531 -33.988281 49.53125 -33.03125 C 50.914062 -31.40625 51.984375 -29.550781 52.734375 -27.46875 C 53.492188 -25.394531 53.875 -23.125 53.875 -20.65625 C 53.875 -13.925781 51.707031 -8.648438 47.375 -4.828125 C 43.039062 -1.003906 36.664062 0.90625 28.25 0.90625 Z M 17.140625 -22.734375 C 17.140625 -15.097656 21.289062 -11.28125 29.59375 -11.28125 C 33.207031 -11.28125 35.828125 -12.078125 37.453125 -13.671875 C 39.078125 -15.265625 39.890625 -17.320312 39.890625 -19.84375 C 39.890625 -22.789062 38.863281 -25.195312 36.8125 -27.0625 C 36.207031 -27.550781 35.722656 -28.066406 35.359375 -28.609375 C 35.003906 -29.148438 34.828125 -29.75 34.828125 -30.40625 C 34.828125 -30.882812 34.976562 -31.488281 35.28125 -32.21875 C 34.195312 -32.695312 33.035156 -33.054688 31.796875 -33.296875 C 30.566406 -33.535156 29.257812 -33.65625 27.875 -33.65625 C 24.75 -33.65625 22.175781 -32.660156 20.15625 -30.671875 C 18.144531 -28.691406 17.140625 -26.046875 17.140625 -22.734375 Z M 17.140625 -22.734375 "/></g></g></g><g fill="#ffffff" fill-opacity="1"><g transform="translate(497.444499, 136.994994)"><g><path d="M 20.21875 0.90625 C 17.082031 0.90625 14.40625 -0.359375 12.1875 -2.890625 C 10.257812 -4.992188 8.660156 -8.03125 7.390625 -12 C 6.128906 -15.96875 5.179688 -20.492188 4.546875 -25.578125 C 3.921875 -30.660156 3.609375 -35.878906 3.609375 -41.234375 C 3.609375 -44.421875 5.832031 -46.015625 10.28125 -46.015625 C 12.445312 -46.015625 14.207031 -45.710938 15.5625 -45.109375 C 16.914062 -44.515625 17.59375 -43.34375 17.59375 -41.59375 C 17.59375 -38.945312 17.769531 -35.9375 18.125 -32.5625 C 18.488281 -29.195312 18.972656 -25.96875 19.578125 -22.875 C 20.179688 -19.78125 20.8125 -17.238281 21.46875 -15.25 C 22.3125 -16.8125 23.195312 -18.765625 24.125 -21.109375 C 25.0625 -23.460938 26.023438 -25.960938 27.015625 -28.609375 C 28.015625 -31.253906 29.054688 -33.835938 30.140625 -36.359375 C 31.222656 -38.890625 32.304688 -41.117188 33.390625 -43.046875 C 35.015625 -44.960938 36.878906 -45.921875 38.984375 -45.921875 C 41.328125 -45.921875 43.367188 -44.898438 45.109375 -42.859375 C 46.253906 -40.878906 47.367188 -38.5625 48.453125 -35.90625 C 49.535156 -33.257812 50.554688 -30.519531 51.515625 -27.6875 C 52.484375 -24.863281 53.398438 -22.21875 54.265625 -19.75 C 55.140625 -17.289062 55.941406 -15.28125 56.671875 -13.71875 C 57.453125 -15.101562 58.21875 -16.90625 58.96875 -19.125 C 59.71875 -21.351562 60.394531 -23.773438 61 -26.390625 C 61.601562 -29.003906 62.082031 -31.617188 62.4375 -34.234375 C 62.800781 -36.859375 62.984375 -39.253906 62.984375 -41.421875 C 62.984375 -43.097656 63.476562 -44.28125 64.46875 -44.96875 C 65.46875 -45.664062 67.140625 -46.015625 69.484375 -46.015625 C 71.828125 -46.015625 73.660156 -45.757812 74.984375 -45.25 C 76.304688 -44.738281 76.96875 -43.460938 76.96875 -41.421875 C 76.96875 -35.585938 76.425781 -30.15625 75.34375 -25.125 C 74.257812 -20.101562 72.785156 -15.664062 70.921875 -11.8125 C 69.054688 -7.96875 66.890625 -4.929688 64.421875 -2.703125 C 61.773438 -0.296875 58.769531 0.90625 55.40625 0.90625 C 53.894531 0.90625 52.492188 0.578125 51.203125 -0.078125 C 49.910156 -0.742188 48.753906 -1.617188 47.734375 -2.703125 C 46.585938 -3.847656 45.457031 -5.625 44.34375 -8.03125 C 43.238281 -10.4375 42.203125 -13.128906 41.234375 -16.109375 C 40.273438 -19.085938 39.40625 -22.050781 38.625 -25 C 37.84375 -22.050781 36.910156 -19.085938 35.828125 -16.109375 C 34.742188 -13.128906 33.597656 -10.4375 32.390625 -8.03125 C 31.191406 -5.625 29.957031 -3.847656 28.6875 -2.703125 C 27.550781 -1.617188 26.273438 -0.742188 24.859375 -0.078125 C 23.441406 0.578125 21.894531 0.90625 20.21875 0.90625 Z M 20.21875 0.90625 "/></g></g></g></svg>